# xmcd
#
# Track frame offsets:
#	150
#	16027
#	32512
#	49517
#	67512
#	88145
#	109130
#	125955
#	140030
#	155125
#
# Disc length: 2220 seconds
#
# Revision: 1
# Processed by: cddbd v1.4PL0 Copyright (c) Steve Scherf et al.
# Submitted via: audiograbber 1.82.02
#
DISCID=8108aa0a
DTITLE=Country Only - Kein zurück
DYEAR=1900
DGENRE=
TTITLE0=Country Only - Stauband
TTITLE1=Country Only - Der Teufel kan nach Georgia
TTITLE2=Country Only - Kein zurück
TTITLE3=Country Only - Weiche Träume
TTITLE4=Country Only - Orange Blossom special
TTITLE5=Country Only - Cherokeen Fiddle
TTITLE6=Country Only - Frag nicht warum
TTITLE7=Country Only - Mann, Mann
TTITLE8=Country Only - Hey, Du
TTITLE9=Country Only - Country only
EXTD=
EXTT0=
EXTT1=
EXTT2=
EXTT3=
EXTT4=
EXTT5=
EXTT6=
EXTT7=
EXTT8=
EXTT9=
PLAYORDER=
